<?xml version="1.0" encoding="UTF-8"?>
<svg id="Layer_1" data-name="Layer 1" xmlns="http://www.w3.org/2000/svg" viewBox="0 0 365.88 339.54">
  <defs>
    <style>
      .cls-1, .cls-2 {
        fill: none;
      }

      .cls-1, .cls-2, .cls-3 {
        stroke: #fff;
        stroke-miterlimit: 10;
      }

      .cls-1, .cls-3 {
        stroke-width: 6px;
      }

      .cls-2 {
        stroke-width: 10px;
      }

      .cls-3 {
        fill: #fff;
      }
    </style>
  </defs>
  <path class="cls-1" d="M3,248.69v-116.26c0-6.98,2.72-13.68,7.59-18.69L120.5,49.04h125l111.57,67.5c3.16,3.2,4.95,7.51,4.98,12.01l.83,120.13c.07,10.31-5.76,19.75-15,24.31l-125.26,61.76c-2.38,1.17-5,1.78-7.65,1.78h-64.1c-2.54,0-5.05-.59-7.32-1.73l-126.37-63.18c-8.69-4.34-14.18-13.23-14.18-22.94Z"/>
  <polygon class="cls-1" points="120 48.54 12 112.54 30 4.54 120 48.54"/>
  <polygon class="cls-1" points="245.41 48.46 353.41 112.46 335.41 4.46 245.41 48.46"/>
  <path class="cls-3" d="M155.47,192.54h54.68c3.44,0,5.41,3.93,3.34,6.68l-16.88,22.5c-3.22,4.29-8.27,6.82-13.63,6.82h-.08c-5.91,0-11.48-2.78-15.03-7.52l-15.98-21.31c-2.22-2.96-.11-7.17,3.59-7.17Z"/>
  <line class="cls-1" x1="183" y1="228.54" x2="183" y2="264.54"/>
  <path class="cls-1" d="M183,264.54c17.78,24.97,35.78,24.36,54,0"/>
  <path class="cls-1" d="M128.5,264.54c18,24.67,36,24.67,54,0"/>
  <path class="cls-2" d="M75,156.54c23.78-23.55,47.78-23.12,72,0"/>
  <path class="cls-2" d="M219,156.54c23.78-23.55,47.78-23.12,72,0"/>
</svg>